<?xml version="1.0" encoding="UTF-8"?>
<svg xmlns="http://www.w3.org/2000/svg" viewBox="0 0 1254 1254" width="1254" height="1254" role="img" aria-labelledby="title desc">
  <title id="title">SCBIRLab carabiner logo</title>
  <desc id="desc">Vector trace of the generated SCBIRLab carabiner logo. Converted from PNG into quantized SVG paths.</desc>
  <g fill-rule="evenodd" stroke="none">
    <path fill="#039692" d="M 371 1008 L 368 1013 L 369 1016 L 372 1018 L 380 1017 L 380 1011 L 376 1011 Z M 370 998 L 365 995 L 360 996 L 363 1000 L 361 1007 L 356 1010 L 352 1010 L 347 1006 L 347 1010 L 351 1013 L 362 1010 L 369 1004 L 367 1001 Z M 475 925 L 462 925 L 460 928 L 461 930 L 457 930 L 454 933 L 453 937 L 457 946 L 454 947 L 453 945 L 454 950 L 438 966 L 433 963 L 429 956 L 426 956 L 428 952 L 426 951 L 423 944 L 420 945 L 413 939 L 369 940 L 366 938 L 364 940 L 363 938 L 362 940 L 341 940 L 343 940 L 346 944 L 346 949 L 340 943 L 336 942 L 333 944 L 331 950 L 334 957 L 337 957 L 345 966 L 357 974 L 356 976 L 358 977 L 359 983 L 362 985 L 368 984 L 370 986 L 370 992 L 380 993 L 385 998 L 386 1007 L 391 1008 L 398 1017 L 406 1018 L 409 1021 L 408 1025 L 402 1030 L 404 1031 L 398 1039 L 395 1039 L 394 1037 L 385 1045 L 389 1052 L 389 1057 L 386 1057 L 380 1065 L 374 1065 L 373 1063 L 375 1061 L 369 1057 L 366 1057 L 366 1054 L 370 1050 L 370 1044 L 367 1041 L 362 1042 L 354 1037 L 353 1033 L 355 1032 L 347 1024 L 346 1028 L 343 1027 L 343 1024 L 346 1022 L 344 1013 L 340 1007 L 346 999 L 346 990 L 359 990 L 358 986 L 349 988 L 346 986 L 345 990 L 338 988 L 336 986 L 336 980 L 340 975 L 340 971 L 337 966 L 338 964 L 333 965 L 327 957 L 320 966 L 322 968 L 321 971 L 319 970 L 321 974 L 316 975 L 309 985 L 308 989 L 310 991 L 307 991 L 301 999 L 304 1008 L 300 1010 L 299 1005 L 300 1004 L 299 1015 L 304 1024 L 309 1024 L 310 1027 L 307 1029 L 314 1038 L 315 1043 L 319 1047 L 321 1046 L 323 1048 L 322 1051 L 319 1050 L 320 1052 L 324 1051 L 326 1053 L 323 1057 L 326 1059 L 330 1069 L 333 1071 L 334 1076 L 336 1073 L 343 1073 L 345 1078 L 348 1079 L 359 1076 L 370 1078 L 397 1076 L 399 1078 L 403 1077 L 418 1079 L 423 1075 L 426 1069 L 424 1066 L 424 1059 L 429 1058 L 431 1061 L 436 1052 L 436 1049 L 439 1047 L 440 1042 L 443 1040 L 444 1035 L 447 1033 L 447 1030 L 451 1026 L 452 1021 L 455 1019 L 458 1005 L 455 999 L 453 998 L 453 1002 L 446 999 L 449 993 L 452 994 L 445 984 L 443 978 L 440 976 L 442 972 L 441 969 L 448 967 L 452 962 L 451 959 L 455 956 L 475 956 L 470 950 L 476 947 L 478 944 L 484 945 L 485 936 Z M 322 975 L 324 974 L 329 976 L 331 979 L 326 981 Z M 366 966 L 376 966 L 383 970 L 386 975 L 386 982 L 389 985 L 392 985 L 395 982 L 396 972 L 393 968 L 394 966 L 405 966 L 409 968 L 415 975 L 416 988 L 412 989 L 409 986 L 405 987 L 400 983 L 398 991 L 401 993 L 410 994 L 411 1003 L 408 1004 L 411 1006 L 411 1008 L 402 1010 L 396 1009 L 392 1004 L 393 998 L 384 990 L 384 988 L 380 986 L 376 987 L 370 983 L 369 977 L 367 977 L 363 971 Z M 535 878 L 530 874 L 524 879 L 518 888 L 515 889 L 483 921 L 485 924 L 491 924 L 513 901 L 515 895 L 521 894 L 530 883 L 529 881 L 532 881 Z M 712 406 L 708 410 L 704 409 L 700 413 L 702 416 Z M 817 342 L 812 342 L 786 367 L 782 373 L 780 373 L 774 379 L 779 384 L 778 386 L 782 382 L 782 376 L 785 373 L 791 373 L 797 366 L 797 363 L 802 361 L 801 359 L 804 355 L 808 357 L 808 355 L 811 354 L 812 351 L 817 347 Z M 694 335 L 690 335 L 689 333 L 683 332 L 679 329 L 677 330 L 674 327 L 671 328 L 670 326 L 668 327 L 663 324 L 659 325 L 658 323 L 655 324 L 653 322 L 642 325 L 641 323 L 644 322 L 639 322 L 638 320 L 609 320 L 608 322 L 601 321 L 599 323 L 589 323 L 588 325 L 585 324 L 584 326 L 581 325 L 577 328 L 574 327 L 573 329 L 568 329 L 567 331 L 563 333 L 560 332 L 535 346 L 505 370 L 506 373 L 500 379 L 497 378 L 491 387 L 492 390 L 489 390 L 483 397 L 470 422 L 472 427 L 468 427 L 464 439 L 465 442 L 463 443 L 462 447 L 465 451 L 461 454 L 461 462 L 459 463 L 462 464 L 462 473 L 458 476 L 462 482 L 462 490 L 459 492 L 459 501 L 462 503 L 465 510 L 465 518 L 462 521 L 463 527 L 465 528 L 464 534 L 469 540 L 469 544 L 466 546 L 468 547 L 468 560 L 469 558 L 472 559 L 472 563 L 469 565 L 470 573 L 475 575 L 472 585 L 477 592 L 474 597 L 475 604 L 479 604 L 479 609 L 476 611 L 479 620 L 478 623 L 480 625 L 480 636 L 484 636 L 484 641 L 481 643 L 483 644 L 482 649 L 484 652 L 483 656 L 485 657 L 485 669 L 489 670 L 489 674 L 486 675 L 488 676 L 487 682 L 489 684 L 488 688 L 489 694 L 491 696 L 490 700 L 494 700 L 494 706 L 491 707 L 493 708 L 492 713 L 497 716 L 497 722 L 494 725 L 496 739 L 506 739 L 504 737 L 509 733 L 520 736 L 519 739 L 515 739 L 542 739 L 540 739 L 539 736 L 543 733 L 552 734 L 550 733 L 551 727 L 546 722 L 546 719 L 549 715 L 548 708 L 545 706 L 547 703 L 546 695 L 541 692 L 544 682 L 542 680 L 543 675 L 541 674 L 541 661 L 537 660 L 537 656 L 540 655 L 538 653 L 539 648 L 535 644 L 536 641 L 538 642 L 536 640 L 537 635 L 535 634 L 535 630 L 532 630 L 532 627 L 534 626 L 533 622 L 535 621 L 533 620 L 534 614 L 530 611 L 533 608 L 531 607 L 531 594 L 529 598 L 527 597 L 527 589 L 530 587 L 528 586 L 529 581 L 525 578 L 525 576 L 528 574 L 526 573 L 527 567 L 525 566 L 525 562 L 522 561 L 522 556 L 525 554 L 523 553 L 523 550 L 520 550 L 519 547 L 522 534 L 520 533 L 521 528 L 519 527 L 520 521 L 518 520 L 519 514 L 517 513 L 517 501 L 512 500 L 512 492 L 514 491 L 512 475 L 515 475 L 515 472 L 517 471 L 515 462 L 518 461 L 519 458 L 517 454 L 520 454 L 524 448 L 522 443 L 526 441 L 525 437 L 530 436 L 531 429 L 534 430 L 535 426 L 531 422 L 531 419 L 534 416 L 539 418 L 546 415 L 548 410 L 546 407 L 547 404 L 563 401 L 561 399 L 563 397 L 566 398 L 567 395 L 570 397 L 572 394 L 575 394 L 575 390 L 580 392 L 581 387 L 583 387 L 585 390 L 588 386 L 597 386 L 597 383 L 599 385 L 603 383 L 607 384 L 605 383 L 607 379 L 613 379 L 615 383 L 617 381 L 626 381 L 627 379 L 632 383 L 634 379 L 642 379 L 646 381 L 646 385 L 651 383 L 654 387 L 667 387 L 668 391 L 673 391 L 672 394 L 678 396 L 682 395 L 686 398 L 685 402 L 692 406 L 702 406 L 707 404 L 707 399 L 721 394 L 722 396 L 720 398 L 728 390 L 726 392 L 724 391 L 724 386 L 728 381 L 733 382 L 733 385 L 745 373 L 741 376 L 738 370 L 739 368 L 730 358 L 715 347 L 712 349 L 712 345 Z M 525 737 L 532 736 L 533 738 L 526 739 Z M 857 304 L 848 303 L 844 298 L 842 300 L 839 299 L 837 305 L 833 304 L 831 307 L 833 308 L 836 318 L 831 319 L 829 314 L 828 317 L 830 319 L 830 324 L 826 329 L 828 332 L 832 334 L 839 329 L 840 321 L 845 325 L 847 330 L 852 330 L 845 323 L 851 317 L 859 322 L 861 320 L 861 310 Z M 867 292 L 863 295 L 863 299 L 866 301 L 872 295 Z M 925 147 L 927 148 L 926 151 L 918 148 L 916 150 L 910 150 L 909 152 L 901 155 L 899 154 L 897 157 L 895 156 L 893 159 L 883 165 L 880 170 L 875 172 L 877 173 L 876 175 L 874 174 L 864 186 L 864 192 L 861 192 L 858 199 L 860 206 L 856 207 L 853 213 L 853 230 L 856 233 L 855 238 L 852 239 L 854 240 L 854 248 L 858 260 L 861 264 L 863 262 L 865 265 L 864 272 L 871 282 L 885 295 L 892 298 L 901 298 L 901 303 L 905 301 L 906 305 L 911 306 L 912 308 L 920 308 L 924 305 L 929 306 L 930 309 L 942 310 L 944 308 L 941 304 L 942 302 L 945 301 L 949 303 L 950 307 L 952 304 L 959 306 L 962 305 L 961 302 L 964 298 L 969 298 L 969 302 L 974 297 L 979 296 L 980 293 L 982 294 L 986 289 L 988 289 L 998 278 L 997 276 L 1001 274 L 1000 269 L 1002 267 L 1004 269 L 1008 260 L 1005 258 L 1004 254 L 1006 253 L 1008 256 L 1010 255 L 1007 253 L 1007 247 L 1013 245 L 1010 242 L 1010 239 L 1014 238 L 1014 219 L 1011 205 L 1010 208 L 1007 207 L 1010 202 L 1004 189 L 1001 189 L 1002 185 L 993 173 L 982 163 L 962 152 L 960 153 L 959 151 L 954 155 L 951 155 L 947 152 L 948 150 L 953 149 L 949 150 L 948 148 L 942 149 L 940 147 Z M 992 279 L 994 280 L 993 284 L 990 283 Z M 978 237 L 981 240 L 979 243 L 975 244 L 974 239 Z M 937 165 L 939 167 L 939 171 L 942 173 L 940 180 L 945 185 L 947 190 L 951 190 L 951 194 L 949 196 L 947 195 L 943 207 L 949 212 L 949 216 L 947 217 L 960 225 L 962 223 L 970 225 L 970 229 L 974 233 L 974 244 L 976 245 L 974 248 L 976 248 L 981 253 L 985 265 L 983 267 L 981 265 L 979 268 L 974 270 L 973 273 L 967 273 L 965 270 L 961 269 L 959 265 L 956 263 L 954 264 L 953 254 L 961 248 L 964 242 L 963 237 L 959 236 L 958 238 L 951 239 L 948 237 L 950 230 L 939 225 L 939 248 L 946 256 L 948 255 L 951 258 L 947 263 L 944 263 L 945 265 L 940 270 L 940 272 L 938 274 L 933 274 L 924 267 L 919 267 L 917 265 L 916 258 L 918 256 L 921 257 L 920 255 L 925 250 L 924 246 L 918 239 L 925 237 L 928 238 L 928 230 L 922 227 L 914 232 L 916 236 L 914 239 L 907 239 L 903 237 L 903 245 L 912 252 L 913 255 L 910 257 L 907 266 L 901 272 L 894 273 L 886 266 L 879 249 L 886 247 L 890 242 L 893 231 L 890 228 L 891 225 L 906 225 L 912 222 L 906 216 L 907 212 L 913 216 L 916 216 L 917 218 L 927 214 L 925 213 L 926 211 L 928 212 L 926 203 L 923 202 L 920 206 L 917 206 L 913 200 L 912 192 L 921 185 L 922 179 L 932 173 L 935 166 Z"/>
    <path fill="#DF3F09" d="M 1111 504 L 1074 439 L 1070 436 L 1002 435 L 987 436 L 982 440 L 949 497 L 944 511 L 924 511 L 917 501 L 911 498 L 903 498 L 903 501 L 901 499 L 896 501 L 889 511 L 810 511 L 810 519 L 889 519 L 894 527 L 902 531 L 910 531 L 917 528 L 922 521 L 920 518 L 924 515 L 927 515 L 928 518 L 923 519 L 948 519 L 985 580 L 1069 581 L 1074 578 L 1111 514 Z M 982 570 L 984 571 L 983 576 L 980 573 Z M 897 527 L 900 524 L 905 524 L 907 526 L 907 530 L 902 531 Z M 994 523 L 996 524 L 995 529 L 993 528 Z M 951 522 L 954 521 L 956 525 L 953 526 Z M 881 512 L 889 511 L 891 518 L 881 519 Z M 810 516 L 814 511 L 824 512 L 823 519 L 811 519 Z M 1008 478 L 1011 480 L 1011 484 L 1009 486 L 1007 485 Z M 1043 466 L 1050 467 L 1056 472 L 1058 476 L 1058 486 L 1061 492 L 1059 495 L 1059 501 L 1067 507 L 1066 513 L 1061 515 L 1058 519 L 1059 534 L 1057 545 L 1049 551 L 1041 551 L 1039 549 L 1039 543 L 1042 540 L 1048 539 L 1048 515 L 1050 512 L 1047 512 L 1047 506 L 1050 506 L 1048 503 L 1048 480 L 1039 475 L 1039 469 Z M 1012 466 L 1016 469 L 1016 475 L 1007 479 L 1006 504 L 1008 502 L 1009 507 L 1006 512 L 1004 511 L 1007 516 L 1007 539 L 1013 540 L 1015 542 L 1013 540 L 1014 537 L 1019 539 L 1019 543 L 1016 544 L 1016 549 L 1014 551 L 1006 551 L 999 546 L 996 540 L 996 517 L 991 515 L 987 510 L 988 506 L 996 501 L 996 477 L 1003 468 Z M 284 149 L 245 218 L 248 228 L 283 288 L 288 291 L 367 291 L 373 287 L 377 280 L 379 280 L 386 287 L 383 283 L 384 280 L 388 278 L 394 283 L 388 288 L 393 293 L 391 297 L 391 307 L 394 313 L 404 319 L 411 319 L 415 317 L 418 318 L 477 375 L 482 369 L 423 311 L 425 299 L 422 292 L 417 288 L 417 293 L 412 292 L 410 287 L 413 286 L 410 285 L 398 287 L 383 272 L 384 267 L 409 225 L 410 217 L 373 151 L 368 147 L 287 147 Z M 469 367 L 469 363 L 471 361 L 476 363 L 475 366 L 471 368 Z M 435 326 L 437 325 L 442 330 L 439 334 L 440 335 L 446 334 L 449 339 L 443 342 L 435 335 Z M 422 311 L 428 316 L 428 319 L 424 323 L 419 319 L 419 314 Z M 392 308 L 396 307 L 400 309 L 402 316 L 399 317 L 396 315 Z M 379 269 L 381 269 L 384 273 L 383 277 L 377 276 L 377 271 Z M 303 244 L 307 242 L 313 242 L 319 247 L 320 254 L 316 260 L 308 262 L 301 257 L 300 248 Z M 298 242 L 302 243 L 300 248 L 297 246 Z M 345 241 L 350 242 L 356 249 L 355 256 L 347 262 L 340 260 L 336 255 L 337 246 Z M 359 211 L 368 210 L 373 215 L 374 222 L 370 228 L 360 229 L 356 226 L 354 217 Z M 288 210 L 295 210 L 301 216 L 301 224 L 296 229 L 288 229 L 282 224 L 282 215 Z M 319 209 L 322 208 L 323 211 L 328 209 L 337 215 L 338 222 L 334 228 L 327 230 L 319 225 L 318 216 L 320 213 L 318 216 L 316 215 L 316 212 Z M 344 177 L 350 178 L 356 185 L 355 192 L 349 197 L 342 197 L 336 191 L 337 182 Z M 304 179 L 312 177 L 319 183 L 320 190 L 316 195 L 318 193 L 320 194 L 318 198 L 315 198 L 314 196 L 306 197 L 300 191 L 300 184 Z"/>
    <path fill="#E72B6E" d="M 498 752 L 500 783 L 504 802 L 517 833 L 529 851 L 547 869 L 563 880 L 580 888 L 608 895 L 624 896 L 655 892 L 677 884 L 697 872 L 714 857 L 731 834 L 740 815 L 748 784 L 748 779 L 740 779 L 739 783 L 742 786 L 740 787 L 741 789 L 737 792 L 735 788 L 719 780 L 692 779 L 688 793 L 679 808 L 683 806 L 683 812 L 678 813 L 678 810 L 673 815 L 673 823 L 670 826 L 663 824 L 655 829 L 659 833 L 658 835 L 650 837 L 644 833 L 632 836 L 638 837 L 637 842 L 629 842 L 622 837 L 609 835 L 610 837 L 608 839 L 595 841 L 594 837 L 596 832 L 600 832 L 588 826 L 588 830 L 580 831 L 578 829 L 578 825 L 580 822 L 582 822 L 565 803 L 566 805 L 562 808 L 551 808 L 557 798 L 560 796 L 562 797 L 555 777 L 554 752 Z M 690 874 L 692 870 L 696 871 L 694 874 Z M 697 866 L 700 865 L 701 868 L 698 870 Z M 720 842 L 723 846 L 714 855 L 711 851 L 716 848 Z M 740 810 L 740 815 L 738 818 L 736 818 L 735 812 Z M 741 790 L 745 789 L 746 794 L 743 795 Z M 692 781 L 695 782 L 695 790 L 690 788 Z M 553 771 L 555 772 L 554 780 L 552 780 L 550 777 L 550 774 Z M 499 767 L 501 766 L 503 770 L 500 771 Z M 529 753 L 541 752 L 542 754 L 537 757 L 532 757 Z M 241 512 L 249 512 L 252 518 L 258 522 L 257 526 L 247 526 L 246 522 L 242 519 L 242 516 L 241 526 L 258 526 L 258 512 Z M 214 512 L 214 526 L 231 526 L 231 512 Z M 214 513 L 224 512 L 226 520 L 230 523 L 230 525 L 222 526 L 221 524 L 215 522 Z M 186 512 L 186 527 L 203 526 L 203 512 Z M 186 513 L 188 512 L 195 518 L 197 522 L 201 522 L 203 525 L 196 526 L 192 522 L 187 521 Z M 241 487 L 249 487 L 255 494 L 258 495 L 258 500 L 254 501 L 251 496 L 243 493 L 242 491 L 242 501 L 258 501 L 258 487 Z M 214 487 L 214 501 L 231 501 L 219 500 L 221 492 L 224 489 L 229 489 L 230 495 L 231 487 Z M 186 487 L 186 501 L 203 501 L 203 487 Z M 186 500 L 186 491 L 191 487 L 203 488 L 202 495 L 195 495 L 193 501 Z M 230 466 L 225 468 L 225 476 L 214 476 L 231 476 Z M 186 462 L 186 476 L 203 476 L 203 462 Z M 186 470 L 196 467 L 198 475 L 187 476 Z M 258 461 L 241 462 L 242 476 L 258 476 Z M 242 468 L 243 462 L 258 463 L 258 465 L 245 469 Z M 142 487 L 142 499 L 145 515 L 153 533 L 152 530 L 154 528 L 159 529 L 157 535 L 154 535 L 159 543 L 169 554 L 183 564 L 199 571 L 214 574 L 231 574 L 245 571 L 262 564 L 272 557 L 285 544 L 290 536 L 288 539 L 285 537 L 283 528 L 286 527 L 292 529 L 293 531 L 291 534 L 297 523 L 299 514 L 299 517 L 296 520 L 294 513 L 298 509 L 298 505 L 296 503 L 296 497 L 298 495 L 302 496 L 302 503 L 305 506 L 304 511 L 301 512 L 333 512 L 335 517 L 340 522 L 345 524 L 355 524 L 359 522 L 367 512 L 445 512 L 444 504 L 376 504 L 368 505 L 374 506 L 369 512 L 364 506 L 366 503 L 364 497 L 358 492 L 358 496 L 353 496 L 352 492 L 355 491 L 352 490 L 343 491 L 335 498 L 333 503 L 335 498 L 339 494 L 341 495 L 333 512 L 323 512 L 322 506 L 325 505 L 324 504 L 303 504 L 301 476 L 296 461 L 289 448 L 274 431 L 263 423 L 250 417 L 240 422 L 236 417 L 237 414 L 240 414 L 228 413 L 229 415 L 222 420 L 218 420 L 214 416 L 214 414 L 217 413 L 201 415 L 196 417 L 199 419 L 192 422 L 191 419 L 181 424 L 181 431 L 177 432 L 174 429 L 164 438 L 169 440 L 166 445 L 162 445 L 161 442 L 154 451 L 147 465 Z M 186 546 L 189 548 L 187 553 L 185 552 Z M 273 546 L 279 545 L 281 548 L 276 551 Z M 217 542 L 223 542 L 224 544 L 218 545 Z M 229 538 L 245 537 L 246 539 L 239 542 L 230 540 Z M 186 545 L 187 543 L 191 542 L 192 537 L 206 538 L 202 544 L 189 546 Z M 173 528 L 176 536 L 170 542 L 168 540 L 170 537 L 168 533 L 172 531 L 171 529 Z M 341 521 L 344 519 L 347 521 L 347 523 L 345 524 Z M 145 513 L 148 512 L 149 516 L 147 517 Z M 440 506 L 444 505 L 445 509 L 442 510 Z M 271 500 L 274 502 L 274 509 L 272 512 L 269 509 L 269 503 Z M 143 492 L 146 494 L 146 498 L 144 500 L 142 499 Z M 270 465 L 274 467 L 274 472 L 272 475 L 269 473 Z M 294 460 L 296 461 L 299 469 L 298 473 L 292 472 L 293 470 L 291 464 Z M 155 450 L 158 453 L 156 457 L 153 455 Z M 176 454 L 179 451 L 189 451 L 193 444 L 199 445 L 203 451 L 216 451 L 217 448 L 221 448 L 222 450 L 233 451 L 235 450 L 235 446 L 242 446 L 245 451 L 263 450 L 266 452 L 265 448 L 272 445 L 274 448 L 274 453 L 272 455 L 268 454 L 269 533 L 265 537 L 178 536 L 175 532 L 175 514 L 173 516 L 170 513 L 171 508 L 174 507 L 175 510 L 175 469 L 174 472 L 171 472 L 168 468 L 168 465 L 173 462 L 175 465 Z M 274 439 L 279 436 L 284 443 L 278 446 L 274 443 Z M 263 427 L 266 425 L 269 430 L 265 431 Z"/>
    <path fill="#ED490B" d="M 746 715 L 741 720 L 726 726 L 725 728 L 722 727 L 702 730 L 701 728 L 696 729 L 695 727 L 693 728 L 689 725 L 687 726 L 674 717 L 677 719 L 685 734 L 690 751 L 692 752 L 691 756 L 693 777 L 748 777 L 750 738 L 748 723 L 746 722 L 747 718 L 745 717 Z M 1012 539 L 1016 542 L 1017 545 L 1018 539 Z M 895 528 L 897 527 L 901 531 L 907 530 L 905 525 L 900 525 Z M 930 518 L 927 516 L 922 517 L 919 524 L 922 522 L 923 518 Z M 810 518 L 890 518 L 889 512 L 811 512 Z M 823 516 L 824 512 L 882 513 L 880 518 L 826 518 Z M 1049 503 L 1048 513 L 1053 509 L 1048 505 Z M 1008 500 L 1006 506 L 1003 509 L 1007 514 L 1006 511 L 1009 504 Z M 729 498 L 724 500 L 717 509 L 718 511 L 716 512 L 717 514 L 715 515 L 716 517 L 714 518 L 711 527 L 712 529 L 708 537 L 709 539 L 707 540 L 708 542 L 706 543 L 707 545 L 705 546 L 703 552 L 704 555 L 702 556 L 699 565 L 700 567 L 698 568 L 696 574 L 697 576 L 695 577 L 696 579 L 691 590 L 685 611 L 686 613 L 683 617 L 679 631 L 680 633 L 678 634 L 676 641 L 677 644 L 675 645 L 668 670 L 669 686 L 675 699 L 688 711 L 701 716 L 715 716 L 717 714 L 723 714 L 734 708 L 734 706 L 742 699 L 765 631 L 764 629 L 766 628 L 791 551 L 790 548 L 792 547 L 796 533 L 795 524 L 793 520 L 787 515 L 767 506 L 754 502 L 752 503 L 751 501 L 748 502 L 747 500 L 744 501 L 743 499 Z M 707 658 L 719 661 L 726 668 L 728 673 L 726 687 L 720 693 L 713 696 L 705 696 L 699 693 L 691 686 L 690 681 L 692 667 L 698 661 Z M 746 375 L 704 416 L 704 418 L 720 438 L 726 453 L 729 456 L 728 458 L 730 459 L 732 474 L 734 476 L 733 485 L 736 484 L 737 486 L 747 488 L 750 487 L 751 489 L 754 488 L 755 490 L 757 489 L 768 494 L 770 493 L 771 495 L 773 494 L 774 496 L 790 502 L 790 477 L 788 460 L 779 427 L 766 400 L 754 383 L 751 385 L 748 383 L 751 381 L 750 378 Z M 469 357 L 471 362 L 468 365 L 473 372 L 471 367 L 474 365 L 479 365 L 482 368 Z M 436 325 L 434 332 L 442 342 L 447 339 L 451 340 L 451 338 Z M 439 332 L 442 331 L 444 334 L 440 336 Z M 422 312 L 418 319 L 424 323 L 428 318 Z M 393 308 L 393 312 L 401 316 L 403 319 L 400 310 Z M 411 285 L 410 287 L 412 291 L 419 291 L 416 287 L 412 287 Z M 387 278 L 383 283 L 391 292 L 389 287 L 393 283 Z M 383 271 L 378 271 L 378 278 L 384 275 Z M 298 242 L 298 246 L 301 248 L 303 245 Z M 328 210 L 319 210 L 317 212 L 317 216 L 324 209 Z"/>
    <path fill="#017BEA" d="M 145 759 L 148 777 L 156 796 L 168 812 L 175 818 L 189 827 L 202 832 L 211 834 L 235 834 L 250 830 L 263 824 L 282 808 L 290 797 L 297 782 L 302 757 L 324 757 L 328 764 L 337 769 L 344 769 L 351 766 L 358 757 L 482 757 L 484 753 L 482 749 L 358 749 L 355 743 L 350 738 L 345 736 L 336 736 L 332 738 L 326 744 L 324 749 L 302 749 L 300 746 L 297 730 L 290 715 L 273 695 L 258 685 L 242 679 L 216 677 L 205 679 L 187 686 L 175 694 L 163 706 L 153 721 L 146 743 Z M 216 781 L 220 777 L 258 777 L 263 781 L 263 785 L 260 788 L 219 788 L 216 785 Z M 185 725 L 187 725 L 213 751 L 213 755 L 188 779 L 184 779 L 180 775 L 180 772 L 200 752 L 181 734 L 180 730 Z"/>
    <path fill="#03BDCC" d="M 1103 768 L 1103 750 L 1100 736 L 1092 718 L 1085 708 L 1071 695 L 1061 689 L 1046 683 L 1030 680 L 1019 680 L 1003 683 L 985 691 L 976 697 L 962 711 L 955 722 L 946 748 L 923 748 L 920 742 L 914 737 L 901 736 L 893 742 L 890 748 L 766 748 L 764 751 L 765 757 L 889 757 L 897 767 L 903 769 L 910 769 L 915 767 L 920 763 L 923 757 L 945 757 L 950 785 L 957 800 L 965 811 L 984 827 L 1002 835 L 1018 838 L 1032 838 L 1047 835 L 1065 827 L 1075 820 L 1092 800 L 1098 788 Z M 985 764 L 1001 763 L 1004 765 L 1005 796 L 1003 799 L 985 799 L 983 797 L 983 766 Z M 1015 740 L 1032 740 L 1034 742 L 1034 797 L 1032 799 L 1015 799 L 1013 797 L 1013 742 Z M 1045 718 L 1062 718 L 1064 720 L 1064 797 L 1062 799 L 1045 799 L 1042 796 L 1042 721 Z"/>
    <path fill="#E73865" d="M 833 942 L 819 966 L 812 962 L 806 966 L 814 975 L 794 1009 L 794 1015 L 796 1016 L 799 1025 L 804 1031 L 831 1080 L 837 1083 L 912 1083 L 921 1078 L 927 1065 L 933 1057 L 934 1052 L 937 1050 L 938 1045 L 941 1043 L 949 1026 L 956 1017 L 955 1015 L 957 1014 L 957 1009 L 955 1008 L 953 1001 L 941 980 L 939 979 L 929 959 L 926 957 L 926 954 L 924 953 L 921 945 L 913 940 L 837 940 Z M 904 1008 L 908 1010 L 909 1016 L 912 1019 L 914 1018 L 919 1022 L 918 1026 L 910 1029 L 910 1033 L 907 1037 L 902 1036 L 898 1027 L 891 1025 L 891 1022 L 895 1018 L 900 1017 L 901 1011 Z M 883 994 L 895 1006 L 894 1010 L 855 1049 L 848 1054 L 842 1052 L 834 1041 L 879 996 Z M 857 975 L 861 977 L 864 986 L 872 988 L 874 991 L 871 996 L 868 995 L 863 999 L 860 1007 L 855 1006 L 853 1002 L 854 1000 L 851 996 L 845 995 L 842 992 L 845 988 L 850 987 L 854 983 L 855 977 Z M 899 967 L 904 969 L 904 973 L 906 974 L 905 976 L 907 978 L 911 978 L 917 983 L 915 986 L 910 987 L 905 991 L 905 997 L 902 1000 L 897 998 L 896 991 L 893 988 L 887 987 L 884 984 L 886 980 L 892 979 L 896 976 L 896 970 Z"/>
    <path fill="#048F8A" d="M 331 1070 L 335 1077 L 339 1079 L 417 1079 L 422 1076 L 414 1074 L 414 1079 L 399 1079 L 397 1077 L 383 1077 L 380 1079 L 359 1077 L 356 1079 L 345 1079 L 343 1074 L 334 1074 Z M 432 1058 L 425 1059 L 425 1066 L 427 1067 Z M 385 1047 L 384 1058 L 388 1057 L 388 1052 Z M 316 1044 L 323 1056 L 325 1053 L 322 1051 L 322 1048 Z M 354 1031 L 354 1036 L 364 1042 L 365 1040 Z M 403 1031 L 401 1030 L 391 1039 L 393 1037 L 398 1038 Z M 376 1010 L 381 1011 L 381 1017 L 379 1018 L 402 1018 L 398 1018 L 391 1009 L 384 1006 L 381 1009 Z M 457 1004 L 455 1005 L 455 1008 L 458 1010 L 458 1013 L 452 1020 L 452 1023 L 458 1013 Z M 300 1001 L 298 1005 L 299 1014 L 298 1010 L 303 1008 L 302 1002 Z M 341 1007 L 346 1017 L 344 1027 L 350 1027 L 346 1025 L 346 1021 L 349 1018 L 371 1018 L 367 1013 L 371 1008 L 374 1009 L 369 1005 L 362 1011 L 351 1014 L 346 1010 L 347 1007 L 349 1008 L 346 1006 L 345 1000 L 345 1003 Z M 404 994 L 409 1000 L 408 1006 L 404 1009 L 410 1008 L 410 996 L 409 994 Z M 449 990 L 450 993 L 447 999 L 453 1001 L 455 1000 Z M 322 975 L 326 980 L 330 979 L 329 977 L 323 974 Z M 355 973 L 357 980 L 351 986 L 358 985 L 360 990 L 355 992 L 353 990 L 347 990 L 346 998 L 352 993 L 357 993 L 359 995 L 365 994 L 369 999 L 374 994 L 369 992 L 368 985 L 362 986 L 358 983 L 358 973 Z M 320 967 L 314 977 L 316 974 L 320 974 Z M 380 969 L 367 966 L 364 971 L 366 972 L 368 980 L 368 977 L 373 970 Z M 409 969 L 400 966 L 395 967 L 392 965 L 397 972 L 396 982 L 392 986 L 389 986 L 385 982 L 381 986 L 385 988 L 392 998 L 396 994 L 402 993 L 397 991 L 400 984 L 398 981 L 399 973 L 404 969 Z M 331 948 L 324 960 L 328 958 L 332 961 L 333 964 L 338 965 L 341 972 L 336 983 L 338 987 L 345 989 L 346 987 L 349 987 L 344 986 L 339 981 L 339 975 L 344 970 L 350 969 L 345 967 L 337 958 L 333 957 L 330 950 Z M 485 939 L 484 945 L 478 945 L 474 949 L 470 949 L 474 954 L 472 956 L 477 955 L 482 951 L 485 945 Z M 414 939 L 416 942 L 420 944 L 422 943 L 421 941 Z M 334 943 L 340 942 L 346 948 L 343 942 L 344 939 L 401 939 L 338 939 Z M 485 918 L 476 926 L 483 932 L 484 935 L 483 932 L 490 925 L 488 926 L 484 924 L 483 920 Z M 520 894 L 516 895 L 514 901 L 506 909 L 504 908 L 504 911 L 497 918 Z M 535 879 L 530 881 L 530 884 L 525 890 Z M 551 732 L 550 735 L 544 733 L 539 738 L 520 738 L 519 736 L 509 734 L 503 738 L 552 739 Z M 495 714 L 493 714 L 494 724 L 496 722 Z M 544 683 L 544 687 L 542 689 L 543 695 L 545 695 Z M 532 606 L 531 614 L 534 616 L 533 630 L 536 632 L 536 634 Z M 473 573 L 471 573 L 472 582 L 474 579 Z M 527 569 L 526 581 L 529 582 L 528 597 L 531 599 Z M 459 498 L 463 520 L 464 510 Z M 458 477 L 459 491 L 461 490 L 461 482 L 459 481 Z M 516 472 L 513 475 L 513 486 L 515 487 L 515 491 L 513 492 L 513 500 L 517 503 L 518 511 L 516 512 L 516 518 L 520 522 L 518 524 L 520 525 L 519 533 L 522 536 L 520 539 L 520 547 L 524 552 L 523 561 L 526 566 L 515 494 Z M 460 458 L 459 474 L 461 473 Z M 545 416 L 539 419 L 537 417 L 532 419 L 531 423 L 533 422 L 534 425 L 531 433 L 528 437 L 526 437 L 523 443 L 524 446 L 520 448 L 520 452 L 518 454 L 520 458 L 519 461 L 516 461 L 515 464 L 517 470 L 522 450 L 529 436 Z M 547 414 L 561 402 L 554 405 L 551 403 L 548 405 L 546 402 L 547 407 L 549 408 Z M 674 395 L 685 401 L 685 398 L 682 396 L 678 397 Z M 655 387 L 670 393 L 672 392 L 668 392 L 667 388 Z M 736 383 L 728 382 L 725 386 L 725 391 L 721 395 L 717 395 L 707 400 L 707 405 L 705 404 L 702 407 L 695 407 L 690 405 L 701 415 L 700 413 L 702 411 L 705 411 L 709 407 L 713 406 Z M 603 384 L 615 382 L 632 382 L 652 386 L 651 384 L 646 384 L 645 381 L 642 380 L 627 380 L 626 382 L 615 382 L 613 380 L 607 380 Z M 790 374 L 785 374 L 783 376 L 783 381 Z M 779 373 L 771 381 L 776 387 L 778 384 L 774 378 Z M 507 370 L 498 377 L 500 378 Z M 733 361 L 741 373 L 740 379 L 744 372 Z M 827 327 L 813 341 L 818 343 L 818 347 L 808 356 L 804 354 L 803 350 L 811 342 L 790 363 L 792 361 L 799 360 L 800 362 L 796 368 L 832 333 L 827 332 Z M 800 353 L 802 354 L 802 359 L 798 360 L 796 357 Z M 818 339 L 820 336 L 824 337 L 821 340 Z M 840 322 L 840 327 L 838 330 L 849 331 L 847 331 L 844 328 L 844 325 Z M 603 321 L 635 320 L 640 321 L 642 324 L 651 322 L 635 320 Z M 853 317 L 846 323 L 851 327 L 851 330 L 854 329 L 860 322 L 854 320 Z M 886 295 L 901 304 L 923 310 L 941 310 L 958 306 L 950 306 L 948 303 L 941 302 L 944 306 L 940 310 L 933 310 L 932 308 L 924 306 L 917 309 L 906 306 L 905 302 L 901 304 L 901 299 L 891 298 L 889 295 Z M 986 290 L 983 290 L 977 297 L 975 296 L 971 300 L 964 298 L 961 305 L 976 298 Z M 884 294 L 873 284 L 856 301 L 847 298 L 837 300 L 829 309 L 829 320 L 830 318 L 835 318 L 832 307 L 834 305 L 838 306 L 837 303 L 840 299 L 846 299 L 848 302 L 857 303 L 860 309 L 860 307 L 867 301 L 862 299 L 862 295 L 866 291 L 871 295 L 869 299 L 879 290 Z M 981 255 L 982 262 L 979 267 L 984 265 Z M 921 255 L 917 258 L 918 265 L 923 267 L 920 261 Z M 950 258 L 944 254 L 944 265 L 939 270 L 930 271 L 933 273 L 940 272 L 939 270 L 947 263 Z M 902 244 L 902 248 L 908 254 L 909 259 L 912 253 Z M 1013 239 L 1011 239 L 1012 245 L 1008 247 L 1007 252 L 1002 252 L 1001 254 L 997 253 L 1002 256 L 1004 254 L 1008 259 L 1011 252 Z M 964 238 L 964 244 L 962 248 L 954 254 L 954 263 L 957 263 L 961 268 L 958 265 L 957 256 L 964 248 Z M 975 237 L 976 249 L 975 244 L 979 242 L 980 239 Z M 927 236 L 924 239 L 919 239 L 926 249 L 928 248 Z M 891 236 L 891 241 L 889 242 L 888 246 L 886 248 L 880 249 L 882 256 L 884 257 L 884 261 L 885 253 L 891 248 Z M 915 237 L 913 232 L 905 236 L 907 238 Z M 948 236 L 955 238 L 959 235 L 951 231 Z M 892 233 L 904 226 L 891 226 L 893 230 Z M 959 224 L 970 230 L 969 225 L 964 223 Z M 852 221 L 853 244 L 855 232 L 852 230 Z M 902 210 L 907 214 L 911 222 L 919 218 L 913 217 L 912 215 L 906 213 L 906 210 Z M 946 188 L 946 196 L 944 200 L 938 204 L 938 213 L 949 219 L 947 210 L 942 207 L 945 198 L 950 194 L 950 190 L 947 190 Z M 935 164 L 936 167 L 933 173 L 923 179 L 921 183 L 922 185 L 913 192 L 913 197 L 917 205 L 920 205 L 924 202 L 920 197 L 920 188 L 922 184 L 929 179 L 937 179 L 940 181 L 941 173 Z M 909 151 L 897 155 L 884 164 L 890 162 L 892 158 L 894 160 L 896 156 L 900 157 L 901 154 L 903 155 Z M 942 148 L 947 148 L 948 152 L 951 154 L 954 154 L 958 151 Z"/>
    <path fill="#FCFCFD" d="M 959 1009 L 959 1015 L 924 1077 L 919 1083 L 915 1085 L 837 1085 L 916 1085 L 920 1083 L 958 1019 Z M 460 1005 L 461 1010 L 459 1016 L 422 1079 L 415 1082 L 339 1081 L 420 1081 L 424 1078 L 458 1019 L 461 1011 Z M 883 997 L 877 1001 L 837 1041 L 837 1043 Z M 464 958 L 461 957 L 443 975 L 444 977 L 444 975 L 461 958 Z M 537 880 L 487 930 L 486 934 L 491 927 Z M 323 759 L 303 759 L 303 768 L 300 780 L 294 794 L 286 806 L 269 822 L 255 830 L 244 834 L 234 836 L 213 836 L 241 835 L 266 825 L 287 806 L 293 797 L 301 778 L 303 760 Z M 486 753 L 483 759 L 359 759 L 350 769 L 345 771 L 337 771 L 346 771 L 351 769 L 360 759 L 482 760 L 485 758 Z M 202 753 L 182 772 L 182 775 L 182 773 Z M 1105 749 L 1105 769 L 1102 783 L 1094 800 L 1086 811 L 1071 825 L 1057 833 L 1038 839 L 1021 840 L 1039 839 L 1056 834 L 1072 825 L 1088 810 L 1096 798 L 1103 781 L 1105 771 Z M 752 737 L 751 778 L 746 805 L 734 833 L 719 854 L 696 875 L 666 891 L 648 896 L 632 898 L 615 898 L 596 895 L 615 898 L 634 898 L 661 893 L 688 881 L 706 868 L 720 854 L 739 825 L 746 806 L 751 779 Z M 798 528 L 797 537 L 747 694 L 740 705 L 730 713 L 721 717 L 706 719 L 718 718 L 731 713 L 740 706 L 747 695 L 798 535 Z M 948 522 L 924 521 L 921 527 L 916 531 L 907 534 L 901 533 L 913 533 L 920 529 L 925 521 Z M 332 515 L 302 515 L 299 524 L 288 543 L 270 561 L 252 571 L 233 576 L 213 576 L 240 575 L 262 567 L 276 557 L 289 543 L 303 515 Z M 1114 506 L 1114 512 L 1077 577 L 1069 583 L 988 583 L 1073 582 L 1077 578 L 1113 516 Z M 448 509 L 447 506 L 447 512 L 444 515 L 367 515 L 366 518 L 358 525 L 348 527 L 361 524 L 368 515 L 446 515 Z M 1013 469 L 1006 469 L 1000 473 L 998 478 L 998 501 L 996 504 L 990 507 L 990 511 L 990 507 L 997 504 L 998 502 L 999 476 L 1003 471 L 1011 469 L 1013 472 Z M 629 384 L 603 386 L 583 392 L 564 402 L 546 417 L 531 437 L 522 457 L 518 474 L 518 497 L 518 476 L 522 458 L 531 438 L 547 417 L 561 405 L 582 393 L 604 386 Z M 838 332 L 836 332 L 776 389 L 778 389 Z M 880 293 L 878 293 L 862 308 L 863 320 L 860 326 L 851 333 L 843 334 L 852 333 L 860 327 L 864 317 L 863 308 Z M 1016 218 L 1016 240 L 1010 261 L 998 281 L 985 294 L 970 304 L 951 311 L 934 313 L 921 312 L 937 313 L 956 310 L 973 303 L 985 295 L 1001 278 L 1011 260 L 1016 242 Z M 411 215 L 411 225 L 384 271 L 386 270 L 411 226 Z M 930 205 L 930 213 L 927 216 L 894 234 L 894 248 L 887 254 L 886 261 L 887 255 L 894 249 L 894 235 L 897 232 L 930 215 Z"/>
    <path fill="#E83473" d="M 598 892 L 601 894 L 606 893 L 607 895 L 608 893 L 618 894 L 619 896 L 622 894 L 625 896 L 630 896 L 631 894 L 641 895 L 644 893 L 610 894 Z M 709 862 L 703 866 L 698 866 L 698 869 L 696 871 L 692 871 L 689 876 L 693 875 L 696 871 L 701 869 Z M 620 836 L 629 841 L 637 841 L 637 837 Z M 595 840 L 608 838 L 610 836 L 601 832 L 597 832 Z M 658 833 L 656 829 L 646 834 L 654 836 Z M 735 827 L 733 827 L 724 843 L 719 843 L 717 848 L 712 851 L 714 854 L 713 856 L 715 856 L 715 854 L 721 849 L 721 847 L 724 845 L 724 842 L 727 841 L 726 839 L 730 836 L 729 834 Z M 578 827 L 580 830 L 590 828 L 583 822 L 581 822 Z M 673 821 L 671 818 L 664 824 L 668 826 Z M 744 804 L 742 804 L 739 811 L 735 811 L 737 818 L 735 823 L 736 825 L 738 821 L 737 819 L 740 816 L 739 814 L 741 813 L 740 811 L 742 810 L 741 808 L 743 807 L 742 805 Z M 683 804 L 677 813 L 682 812 Z M 568 806 L 560 795 L 560 797 L 551 807 L 559 808 Z M 714 779 L 725 781 L 727 784 L 735 787 L 737 791 L 741 789 L 744 795 L 743 801 L 745 800 L 744 797 L 746 796 L 745 793 L 747 791 L 741 786 L 739 779 Z M 691 779 L 692 785 L 688 795 L 691 789 L 695 789 L 694 782 Z M 553 770 L 551 774 L 552 779 L 556 777 Z M 498 763 L 501 771 L 499 778 L 501 780 L 502 768 Z M 499 753 L 500 756 L 502 753 L 529 753 L 532 756 L 546 753 Z M 256 567 L 249 566 L 248 568 L 242 570 L 242 572 L 244 570 L 246 571 L 247 569 L 249 570 L 250 568 L 252 569 Z M 281 547 L 274 546 L 276 554 Z M 162 545 L 162 547 L 167 550 L 170 545 L 167 544 L 165 547 Z M 228 538 L 239 541 L 246 538 Z M 205 538 L 192 538 L 192 542 L 187 544 L 186 553 L 190 549 L 187 547 L 188 545 L 202 543 Z M 295 528 L 292 530 L 284 528 L 285 535 L 288 540 L 292 530 Z M 174 528 L 171 530 L 169 529 L 169 534 L 171 536 L 169 538 L 169 542 L 175 536 L 178 537 L 174 531 Z M 151 527 L 154 532 L 153 534 L 156 536 L 156 539 L 156 533 L 159 530 L 152 529 Z M 241 513 L 241 516 L 247 522 L 246 525 L 241 527 L 244 527 L 245 525 L 257 525 L 257 513 L 256 521 L 251 518 L 250 513 Z M 214 513 L 215 521 L 219 523 L 214 527 L 224 527 L 225 525 L 231 525 L 225 520 L 225 513 Z M 187 513 L 187 522 L 192 521 L 194 523 L 191 527 L 188 527 L 187 525 L 187 527 L 196 527 L 197 525 L 202 525 L 201 522 L 197 523 L 190 515 L 192 513 Z M 174 506 L 171 509 L 171 513 L 174 516 Z M 399 506 L 435 506 L 432 504 L 423 504 L 422 506 L 419 504 L 414 504 L 413 506 Z M 364 504 L 367 508 L 366 514 L 444 513 L 446 510 L 443 504 L 440 506 L 442 509 L 441 511 L 372 511 L 371 509 L 376 506 L 375 504 Z M 272 501 L 270 503 L 271 512 L 273 509 Z M 353 490 L 353 495 L 360 495 L 360 493 L 357 493 L 356 491 L 354 492 Z M 241 488 L 241 491 L 252 496 L 251 500 L 241 500 L 257 500 L 257 492 L 255 495 L 250 488 Z M 230 486 L 228 490 L 224 490 L 222 492 L 219 500 L 215 500 L 231 500 Z M 189 486 L 187 488 L 187 500 L 197 500 L 195 500 L 193 496 L 195 494 L 202 494 L 203 488 L 190 488 Z M 301 484 L 301 495 L 296 498 L 296 501 L 299 505 L 299 509 L 294 515 L 296 521 L 298 515 L 301 513 L 320 513 L 321 511 L 329 511 L 330 513 L 333 513 L 336 503 L 342 493 L 336 498 L 333 504 L 325 504 L 324 506 L 321 506 L 323 507 L 322 511 L 318 511 L 317 513 L 307 513 L 304 510 L 305 506 L 315 506 L 314 504 L 311 506 L 304 506 L 301 503 L 301 496 L 303 495 Z M 271 465 L 271 476 L 274 469 Z M 173 463 L 169 465 L 169 468 L 174 472 L 175 466 Z M 241 461 L 243 462 L 243 467 L 241 470 L 255 465 L 257 467 L 257 461 Z M 214 461 L 214 475 L 231 475 L 231 473 L 230 475 L 226 475 L 224 468 L 228 466 L 231 468 L 231 461 Z M 187 461 L 187 475 L 202 475 L 197 474 L 196 468 L 188 469 L 187 464 L 191 461 L 198 461 L 202 466 L 203 461 Z M 294 456 L 294 462 L 292 464 L 293 472 L 298 472 L 299 475 L 301 475 L 299 474 L 299 468 L 296 465 L 297 463 L 294 460 Z M 234 451 L 244 451 L 245 449 L 242 447 L 235 447 Z M 273 448 L 270 446 L 265 450 L 262 449 L 261 451 L 258 451 L 265 450 L 268 455 L 273 453 Z M 190 449 L 190 451 L 202 451 L 199 446 L 194 445 Z M 166 437 L 160 444 L 166 445 L 168 441 Z M 275 439 L 275 443 L 278 445 L 284 443 L 284 441 L 278 436 Z M 181 426 L 174 430 L 181 430 Z M 264 425 L 265 431 L 270 429 Z M 237 415 L 237 419 L 240 421 L 245 418 L 254 420 L 253 418 L 251 419 L 245 415 Z M 211 414 L 214 414 L 218 419 L 222 419 L 229 414 L 234 414 L 228 414 L 226 412 Z"/>
    <path fill="#E83B56" d="M 722 870 L 718 876 L 772 931 L 770 945 L 774 952 L 783 957 L 795 955 L 813 975 L 806 966 L 812 962 L 815 964 L 801 950 L 803 936 L 800 930 L 791 924 L 778 925 L 724 870 Z"/>
    <path fill="#EC628F" d="M 883 1005 L 877 1010 L 879 1013 L 885 1008 Z"/>
  </g>
</svg>
